<?xml version="1.0" encoding="UTF-8"?>
<svg id="Layer_2" data-name="Layer 2" xmlns="http://www.w3.org/2000/svg" viewBox="0 0 140.14 28">
  <defs>
    <style>
      .cls-1 {
        stroke-width: 0px;
      }
    </style>
  </defs>
  <g id="Horizontal">
    <g>
      <path class="cls-1" d="m50.03,15.28h-5.03v-.28h1.6V3.88h-1.6v-.28h8.67l.13,3.9h-.27s-.04-.79-.04-.79c-.08-1.52-.66-2.82-3.2-2.82h-2.04v5.51h.63c.44,0,.82-.03,1.06-.08.73-.18,1.08-1,1.13-2.05h.27v4.55h-.27c-.06-1.24-.42-1.89-1.1-2.05-.28-.07-.66-.08-1.09-.08h-.63v5.32h1.79v.28Z"/>
      <path class="cls-1" d="m61.53,14.68c-.28.43-.78.82-1.46.82-.84,0-1.23-.58-1.28-1.32-.21.53-1.09,1.32-2.29,1.32-1.08,0-2.34-.6-2.34-2.01,0-1.08.65-1.48,1.95-1.8,1.33-.33,2.7-.73,2.7-2.25,0-1.02-.6-1.76-1.91-1.76s-2,.7-2,1.46c.08-.33.33-.59.72-.59.44,0,.75.34.75.78,0,.46-.33.81-.8.81s-.92-.34-.92-1.01c0-1.02,1.01-1.74,2.49-1.74,1.88,0,3.03,1.1,3.03,3.15v4.06c0,.27.11.45.38.45.3,0,.58-.21.78-.57l.18.21Zm-2.74-4.21c-.33.77-1.25,1.19-2.75,1.52-.27.21-.45.71-.45,1.38,0,1.26.67,1.73,1.38,1.73,1.02,0,1.71-.91,1.82-1.42v-3.21Z"/>
      <path class="cls-1" d="m69.49,15h1.35v.28h-4v-.28h1.25v-5.45c0-1.21-.5-1.73-1.24-1.73-1.52,0-2.15,2.11-2.16,3.1v4.07h1.27v.28h-4.01v-.28h1.35v-7.12h-1.35v-.28c1.13,0,1.92-.06,2.74-.24v2.31c.3-1.01.99-2.28,2.58-2.28,1.42,0,2.22.98,2.22,2.74v4.88Z"/>
      <path class="cls-1" d="m78.67,16.3c0,1.79-1.87,2.96-4.02,2.96-1.97,0-3.26-.9-3.26-2.07,0-.88.74-1.41,1.5-1.63-.83-.23-1.21-.78-1.21-1.42,0-.79.63-1.38,1.54-1.63-.82-.49-1.3-1.33-1.3-2.29,0-1.39,1.07-2.86,3.05-2.86.48,0,.93.09,1.34.25.05,0,.1,0,.14,0,.88,0,1.44-.66,1.38-1.3-.03.33-.33.6-.73.6s-.76-.29-.76-.76.37-.8.83-.8c.53,0,.94.43.94,1.07,0,.67-.51,1.3-1.34,1.41.83.5,1.36,1.35,1.36,2.32,0,1.39-1.09,2.84-3.09,2.84-.56,0-1.06-.11-1.49-.31-.81.18-1.38.55-1.38,1.04,0,.39.36.55.98.55.39,0,2.4-.07,2.87-.07,1.56,0,2.65.73,2.65,2.08Zm-.78.55c0-.89-.68-1.24-1.79-1.24-.44,0-1.94.06-2.34.06-.97.07-1.42.58-1.42,1.49,0,1.14.73,1.84,2.34,1.84,1.81,0,3.2-.91,3.2-2.15Zm-4.5-6.66c0,1.33.38,2.54,1.63,2.54s1.64-1.19,1.64-2.54-.4-2.54-1.64-2.54-1.63,1.21-1.63,2.54Z"/>
      <path class="cls-1" d="m92.89,13.34c-.06,1.36-.51,2.16-1.54,2.16-1.37,0-1.78-1.18-2.01-3.22-.28-2.51-.63-2.62-3.88-2.71v5.43h1.59v.28h-4.84v-.28h1.6V3.88h-1.6v-.28h4.79c2.54,0,4.13,1.11,4.13,2.97,0,2.09-2.16,2.79-3.92,2.89,0,0,0,0,0,0,3.18.16,3.8,1.04,3.89,3.6.04,1.14.13,1.97.68,1.97.5,0,.8-.7.85-1.74l.27.03Zm-7.43-4.05c.28,0,.68.02.99.02.69,0,1.3-.09,1.74-.28.85-.38,1.15-1.27,1.15-2.34,0-1.95-1.03-2.79-2.81-2.79h-1.07v5.4Z"/>
      <path class="cls-1" d="m100.26,13.84c-.57.93-1.67,1.66-2.95,1.66-1.93,0-3.79-1.64-3.79-4.05s1.77-4.06,3.76-4.06,2.98,1.68,2.98,3.41c0,.09,0,.19,0,.28h-5.21c-.05,2.54.79,4.05,2.55,4.05,1.07,0,1.94-.63,2.45-1.45l.21.16Zm-1.54-3.04c0-.09,0-.19,0-.28,0-1.44-.48-2.85-1.68-2.85s-1.88,1.42-1.99,3.14h3.65Z"/>
      <path class="cls-1" d="m108.84,14.68c-.28.43-.78.82-1.46.82-.84,0-1.23-.58-1.28-1.32-.21.53-1.09,1.32-2.29,1.32-1.08,0-2.34-.6-2.34-2.01,0-1.08.65-1.48,1.95-1.8,1.33-.33,2.7-.73,2.7-2.25,0-1.02-.6-1.76-1.91-1.76s-2,.7-2,1.46c.08-.33.33-.59.72-.59.44,0,.75.34.75.78,0,.46-.33.81-.8.81s-.92-.34-.92-1.01c0-1.02,1.01-1.74,2.49-1.74,1.88,0,3.03,1.1,3.03,3.15v4.06c0,.27.11.45.38.45.3,0,.58-.21.78-.57l.18.21Zm-2.74-4.21c-.33.77-1.25,1.19-2.75,1.52-.27.21-.45.71-.45,1.38,0,1.26.67,1.73,1.38,1.73,1.02,0,1.71-.91,1.82-1.42v-3.21Z"/>
      <path class="cls-1" d="m111.93,15.05h1.35v.23h-4.09v-.23h1.35V6.16h-1.35v-.23c1.11,0,1.91-.04,2.74-.19v9.32Z"/>
      <path class="cls-1" d="m118.39,14.53c-.33.51-.87.97-1.73.97-1.44,0-1.82-1.13-1.82-2.48v-5.15h-1.23v-.28h1.23v-1.4c.48-.15,1.11-.66,1.38-1.1v2.5h2.05v.28h-2.05v5.96c0,.94.36,1.26.83,1.26.51,0,.91-.42,1.1-.72l.23.15Z"/>
      <path class="cls-1" d="m126.55,11.44c0,2.37-1.83,4.05-3.78,4.05s-3.78-1.69-3.78-4.05,1.82-4.06,3.77-4.06,3.79,1.68,3.79,4.06Zm-3.77-3.79c-1.65,0-2.26,1.73-2.26,3.71,0,2.19.65,3.85,2.25,3.85s2.24-1.66,2.24-3.83c0-2.01-.6-3.74-2.24-3.74Z"/>
      <path class="cls-1" d="m132.77,9.51c-.47,0-.84-.36-.84-.81s.36-.81.78-.81c.27,0,.51.13.66.35-.12-.31-.41-.61-.96-.61-1.62,0-2.27,2.56-2.27,4.63v2.73h1.43v.28h-4.2v-.28h1.35v-7.12h-1.35v-.28c1.13,0,1.94-.05,2.77-.24v3.04c.22-1.49.9-3.01,2.25-3.01.82,0,1.27.53,1.27,1.16,0,.59-.4.98-.89.98Z"/>
      <path class="cls-1" d="m139.52,10.01c-.21-1.34-1.31-2.35-2.56-2.35-.91,0-1.55.53-1.55,1.24,0,.88.89,1.26,2.21,1.72,1.33.47,2.52.91,2.52,2.43s-1.12,2.45-2.54,2.45c-.9,0-1.56-.42-1.99-.82-.34.11-.59.34-.71.72h-.22l-.15-2.74.27-.02c.16,1.14,1.19,2.58,2.76,2.58,1.04,0,1.73-.58,1.73-1.45,0-.98-.83-1.29-2.22-1.77-1.44-.49-2.37-1.16-2.37-2.48,0-1.43,1.09-2.14,2.25-2.14.84,0,1.46.39,1.75.67.38-.03.63-.31.74-.67h.22l.13,2.62h-.27Z"/>
    </g>
    <rect class="cls-1" x="38.88" width=".25" height="21"/>
    <path class="cls-1" d="m37.32,23.32c-.85,0-1.53.65-1.53,1.59s.69,1.52,1.45,1.52c.71,0,1.19-.47,1.36-1.07-.08,1.13-.95,2.16-2.49,2.16-2.86,0-3.4-3.13-4.4-9.83-.81-5.36-1.7-7.04-6.69-7.37.01,0,.01-.01,0-.01,2.76-.16,6.14-1.3,6.14-4.71,0-3.02-2.47-4.83-6.46-4.83H6.81C3.3.76,0,2.95,0,6.84c0,3.13,2.19,4.72,4.22,4.72s2.93-1.23,2.93-2.41c0-.96-.63-1.72-1.54-1.72-.85,0-1.49.68-1.49,1.55s.64,1.47,1.45,1.47c.43,0,.78-.23,1.01-.56-.22.54-.9,1.23-2.31,1.23-1.87,0-3.81-1.44-3.81-4.3C.44,3.29,3.42,1.22,6.82,1.22h3.3v18.07h-2.51v.46h7.88v-.46h-2.79v-8.65h.98c.68,0,1.28.03,1.71.14,1.07.27,1.63,1.32,1.72,3.34h.42v-7.39h-.42c-.08,1.71-.64,3.04-1.78,3.34-.38.09-.97.14-1.66.14h-.98V1.22h3.19c1.88,0,3.06.48,3.81,1.24v16.82h-2.51v.46h7.57v-.46h-2.49v-8.83c4.98.14,5.32.41,6.23,5.07,1.29,5.87,3.2,12.47,7.43,12.47,2,0,3.07-1.41,3.07-2.74s-.82-1.94-1.68-1.94Zm-15.05-13.32V1.22h1.67c3.21,0,4.4,1.67,4.4,4.53,0,1.68-.44,3.21-1.8,3.81-.72.33-1.78.46-2.72.46-.51,0-1.11-.01-1.55-.03Z"/>
  </g>
</svg>