<?xml version="1.0" encoding="UTF-8"?>
<svg id="Layer_2" data-name="Layer 2" xmlns="http://www.w3.org/2000/svg" viewBox="0 0 39 27.24">
  <defs>
    <style>
      .cls-1 {
        stroke-width: 0px;
      }
    </style>
  </defs>
  <g id="Icon">
    <path class="cls-1" d="m37.32,22.56c-.85,0-1.53.65-1.53,1.59s.69,1.52,1.45,1.52c.71,0,1.19-.47,1.36-1.07-.08,1.13-.95,2.16-2.49,2.16-2.86,0-3.4-3.13-4.4-9.83-.81-5.36-1.7-7.04-6.69-7.37.01,0,.01-.01,0-.01,2.76-.16,6.14-1.3,6.14-4.71,0-3.02-2.47-4.83-6.46-4.83H6.81C3.3,0,0,2.18,0,6.08c0,3.13,2.19,4.72,4.22,4.72s2.93-1.23,2.93-2.41c0-.96-.63-1.72-1.54-1.72-.85,0-1.49.68-1.49,1.55s.64,1.47,1.45,1.47c.43,0,.78-.23,1.01-.56-.22.54-.9,1.23-2.31,1.23-1.87,0-3.81-1.44-3.81-4.3C.44,2.52,3.42.46,6.82.46h3.3v18.07h-2.51v.46h7.88v-.46h-2.79v-8.65h.98c.68,0,1.28.03,1.71.14,1.07.27,1.63,1.32,1.72,3.34h.42v-7.39h-.42c-.08,1.71-.64,3.04-1.78,3.34-.38.09-.97.14-1.66.14h-.98V.46h3.19c1.88,0,3.06.48,3.81,1.24v16.82h-2.51v.46h7.57v-.46h-2.49v-8.83c4.98.14,5.32.41,6.23,5.07,1.29,5.87,3.2,12.47,7.43,12.47,2,0,3.07-1.41,3.07-2.74s-.82-1.94-1.68-1.94Zm-15.05-13.32V.46h1.67c3.21,0,4.4,1.67,4.4,4.53,0,1.68-.44,3.21-1.8,3.81-.72.33-1.78.46-2.72.46-.51,0-1.11-.01-1.55-.03Z"/>
  </g>
</svg>