<?xml version="1.0" encoding="UTF-8"?>
<svg id="Layer_2" data-name="Layer 2" xmlns="http://www.w3.org/2000/svg" viewBox="0 0 81 27.66">
  <defs>
    <style>
      .cls-1 {
        stroke-width: 0px;
      }
    </style>
  </defs>
  <g id="OnTop">
    <g>
      <path class="cls-1" d="m39.71,9.1h-3.92v-.22h1.25V.22h-1.25v-.22h6.75l.1,3.04h-.21s-.03-.62-.03-.62c-.06-1.18-.51-2.2-2.5-2.2h-1.59v4.3h.49c.34,0,.64-.02.83-.06.57-.14.85-.78.88-1.6h.21v3.54h-.21c-.05-.97-.32-1.47-.86-1.6-.21-.05-.51-.06-.85-.06h-.49v4.15h1.39v.22Z"/>
      <path class="cls-1" d="m48.66,8.63c-.21.34-.61.64-1.14.64-.66,0-.96-.45-.99-1.03-.16.42-.85,1.03-1.79,1.03-.84,0-1.82-.47-1.82-1.57,0-.85.51-1.15,1.52-1.4,1.03-.25,2.11-.57,2.11-1.75,0-.79-.47-1.37-1.49-1.37s-1.56.55-1.56,1.14c.06-.25.25-.46.56-.46.34,0,.58.27.58.6,0,.36-.26.63-.62.63s-.71-.27-.71-.79c0-.79.79-1.35,1.94-1.35,1.46,0,2.36.86,2.36,2.45v3.17c0,.21.08.35.3.35.23,0,.45-.16.61-.44l.14.16Zm-2.14-3.28c-.25.6-.98.93-2.15,1.18-.21.16-.35.55-.35,1.08,0,.98.52,1.35,1.08,1.35.79,0,1.33-.71,1.42-1.1v-2.5Z"/>
      <path class="cls-1" d="m54.87,8.88h1.05v.22h-3.11v-.22h.98v-4.24c0-.94-.39-1.35-.97-1.35-1.18,0-1.68,1.64-1.68,2.42v3.17h.99v.22h-3.13v-.22h1.05V3.33h-1.05v-.22c.88,0,1.5-.05,2.14-.19v1.8c.23-.79.77-1.77,2.01-1.77,1.11,0,1.73.76,1.73,2.13v3.8Z"/>
      <path class="cls-1" d="m62.02,9.9c0,1.4-1.46,2.31-3.13,2.31-1.53,0-2.54-.7-2.54-1.61,0-.68.58-1.1,1.17-1.27-.65-.18-.94-.61-.94-1.1,0-.62.49-1.07,1.2-1.27-.64-.38-1.01-1.04-1.01-1.78,0-1.09.83-2.23,2.38-2.23.38,0,.73.07,1.05.19.04,0,.08,0,.11,0,.69,0,1.12-.51,1.07-1.01-.03.26-.25.47-.57.47s-.59-.23-.59-.59.29-.62.65-.62c.42,0,.73.34.73.83,0,.52-.4,1.01-1.05,1.1.65.39,1.06,1.05,1.06,1.81,0,1.09-.85,2.21-2.41,2.21-.44,0-.83-.08-1.16-.24-.63.14-1.07.43-1.07.81,0,.31.28.43.76.43.31,0,1.87-.05,2.24-.05,1.22,0,2.07.57,2.07,1.62Zm-.6.43c0-.7-.53-.97-1.39-.97-.34,0-1.51.05-1.83.05-.75.05-1.1.45-1.1,1.16,0,.89.57,1.44,1.83,1.44,1.41,0,2.5-.71,2.5-1.68Zm-3.51-5.19c0,1.03.29,1.98,1.27,1.98s1.28-.93,1.28-1.98-.31-1.98-1.28-1.98-1.27.94-1.27,1.98Z"/>
      <path class="cls-1" d="m44.11,19.59c-.05,1.06-.4,1.68-1.2,1.68-1.07,0-1.39-.92-1.57-2.51-.21-1.96-.49-2.04-3.02-2.11v4.23h1.24v.22h-3.77v-.22h1.25v-8.66h-1.25v-.22h3.73c1.98,0,3.22.86,3.22,2.31,0,1.63-1.68,2.18-3.06,2.26,0,0,0,0,0,0,2.48.12,2.96.81,3.03,2.81.03.89.1,1.53.53,1.53.39,0,.62-.55.66-1.36l.21.03Zm-5.79-3.16c.22,0,.53.01.77.01.54,0,1.01-.07,1.35-.22.66-.29.9-.99.9-1.83,0-1.52-.81-2.17-2.19-2.17h-.83v4.21Z"/>
      <path class="cls-1" d="m49.85,19.98c-.44.73-1.3,1.29-2.3,1.29-1.5,0-2.95-1.28-2.95-3.16s1.38-3.17,2.93-3.17,2.32,1.31,2.32,2.66c0,.07,0,.15,0,.22h-4.06c-.04,1.98.62,3.16,1.99,3.16.83,0,1.51-.49,1.91-1.13l.16.12Zm-1.2-2.37c0-.07,0-.15,0-.22,0-1.12-.38-2.22-1.31-2.22s-1.47,1.11-1.55,2.44h2.85Z"/>
      <path class="cls-1" d="m56.53,20.63c-.21.34-.61.64-1.14.64-.66,0-.96-.45-.99-1.03-.16.42-.85,1.03-1.79,1.03-.84,0-1.82-.47-1.82-1.57,0-.85.51-1.15,1.52-1.4,1.03-.25,2.11-.57,2.11-1.75,0-.79-.47-1.37-1.49-1.37s-1.56.55-1.56,1.14c.06-.25.25-.46.56-.46.34,0,.58.27.58.6,0,.36-.26.63-.62.63s-.71-.27-.71-.79c0-.79.79-1.35,1.94-1.35,1.46,0,2.36.86,2.36,2.45v3.17c0,.21.08.35.3.35.23,0,.45-.16.61-.44l.14.16Zm-2.14-3.28c-.25.6-.98.93-2.15,1.18-.21.16-.35.55-.35,1.08,0,.98.52,1.35,1.08,1.35.79,0,1.33-.71,1.42-1.1v-2.5Z"/>
      <path class="cls-1" d="m58.94,20.92h1.05v.18h-3.19v-.18h1.05v-6.93h-1.05v-.18c.86,0,1.49-.03,2.13-.15v7.26Z"/>
      <path class="cls-1" d="m63.98,20.52c-.26.4-.68.75-1.35.75-1.12,0-1.42-.88-1.42-1.93v-4.01h-.96v-.22h.96v-1.09c.38-.12.86-.51,1.08-.86v1.95h1.6v.22h-1.6v4.65c0,.73.28.98.65.98.4,0,.71-.32.86-.56l.18.12Z"/>
      <path class="cls-1" d="m70.33,18.11c0,1.85-1.42,3.16-2.94,3.16s-2.94-1.32-2.94-3.16,1.42-3.17,2.94-3.17,2.95,1.31,2.95,3.17Zm-2.94-2.95c-1.29,0-1.76,1.35-1.76,2.89,0,1.71.51,3,1.76,3s1.75-1.29,1.75-2.98c0-1.57-.47-2.91-1.74-2.91Z"/>
      <path class="cls-1" d="m75.18,16.61c-.36,0-.66-.28-.66-.63s.28-.63.61-.63c.21,0,.4.1.51.27-.09-.24-.32-.47-.75-.47-1.26,0-1.77,2-1.77,3.61v2.13h1.12v.22h-3.28v-.22h1.05v-5.55h-1.05v-.22c.88,0,1.51-.04,2.16-.19v2.37c.17-1.16.7-2.35,1.76-2.35.64,0,.99.41.99.9,0,.46-.31.76-.7.76Z"/>
      <path class="cls-1" d="m80.44,16.99c-.16-1.05-1.02-1.83-2-1.83-.71,0-1.21.41-1.21.97,0,.69.7.98,1.72,1.34,1.03.36,1.96.71,1.96,1.89s-.87,1.91-1.98,1.91c-.7,0-1.22-.33-1.55-.64-.27.08-.46.27-.55.56h-.17l-.12-2.13h.21c.12.88.93,2,2.15,2,.81,0,1.35-.45,1.35-1.13,0-.77-.64-1.01-1.73-1.38-1.12-.38-1.85-.9-1.85-1.93,0-1.11.85-1.67,1.75-1.67.66,0,1.14.31,1.37.52.29-.03.49-.24.58-.52h.17l.1,2.04h-.21Z"/>
    </g>
    <path class="cls-1" d="m55.26,10.54h-19.26v.25h19.28c-.01-.08-.01-.17-.02-.25Z"/>
    <path class="cls-1" d="m62.74,10.54c0,.08,0,.17-.02.25h18.28v-.25h-18.26Z"/>
    <path class="cls-1" d="m37.32,22.98c-.85,0-1.53.65-1.53,1.59s.69,1.52,1.45,1.52c.71,0,1.19-.47,1.36-1.07-.08,1.13-.95,2.16-2.49,2.16-2.86,0-3.4-3.13-4.4-9.83-.81-5.36-1.7-7.04-6.69-7.37.01,0,.01-.01,0-.01,2.76-.16,6.14-1.3,6.14-4.71,0-3.02-2.47-4.83-6.46-4.83H6.81C3.3.43,0,2.61,0,6.5c0,3.13,2.19,4.72,4.22,4.72s2.93-1.23,2.93-2.41c0-.96-.63-1.72-1.54-1.72-.85,0-1.49.68-1.49,1.55s.64,1.47,1.45,1.47c.43,0,.78-.23,1.01-.56-.22.54-.9,1.23-2.31,1.23-1.87,0-3.81-1.44-3.81-4.3C.44,2.95,3.42.89,6.82.89h3.3v18.07h-2.51v.46h7.88v-.46h-2.79v-8.65h.98c.68,0,1.28.03,1.71.14,1.07.27,1.63,1.32,1.72,3.34h.42v-7.39h-.42c-.08,1.71-.64,3.04-1.78,3.34-.38.09-.97.14-1.66.14h-.98V.89h3.19c1.88,0,3.06.48,3.81,1.24v16.82h-2.51v.46h7.57v-.46h-2.49v-8.83c4.98.14,5.32.41,6.23,5.07,1.29,5.87,3.2,12.47,7.43,12.47,2,0,3.07-1.41,3.07-2.74s-.82-1.94-1.68-1.94Zm-15.05-13.32V.89h1.67c3.21,0,4.4,1.67,4.4,4.53,0,1.68-.44,3.21-1.8,3.81-.72.33-1.78.46-2.72.46-.51,0-1.11-.01-1.55-.03Z"/>
  </g>
</svg>